<svg id="visual" viewBox="0 0 960 540" width="960" height="540" xmlns="http://www.w3.org/2000/svg" xmlns:xlink="http://www.w3.org/1999/xlink" version="1.1"><path d="M0 317L14.5 328.7C29 340.3 58 363.7 87.2 374.5C116.3 385.3 145.7 383.7 174.8 385C204 386.3 233 390.7 262 393.8C291 397 320 399 349 393.3C378 387.7 407 374.3 436.2 365.8C465.3 357.3 494.7 353.7 523.8 357C553 360.3 582 370.7 611 368.8C640 367 669 353 698 351.7C727 350.3 756 361.7 785.2 364C814.3 366.3 843.7 359.7 872.8 359.5C902 359.3 931 365.7 945.5 368.8L960 372L960 541L945.5 541C931 541 902 541 872.8 541C843.7 541 814.3 541 785.2 541C756 541 727 541 698 541C669 541 640 541 611 541C582 541 553 541 523.8 541C494.7 541 465.3 541 436.2 541C407 541 378 541 349 541C320 541 291 541 262 541C233 541 204 541 174.8 541C145.7 541 116.3 541 87.2 541C58 541 29 541 14.5 541L0 541Z" fill="#36b769"></path><path d="M0 370L14.5 377C29 384 58 398 87.2 412.8C116.3 427.7 145.7 443.3 174.8 437.3C204 431.3 233 403.7 262 395.2C291 386.7 320 397.3 349 410.5C378 423.7 407 439.3 436.2 442C465.3 444.7 494.7 434.3 523.8 427.5C553 420.7 582 417.3 611 417.5C640 417.7 669 421.3 698 428.2C727 435 756 445 785.2 447.5C814.3 450 843.7 445 872.8 433.3C902 421.7 931 403.3 945.5 394.2L960 385L960 541L945.5 541C931 541 902 541 872.8 541C843.7 541 814.3 541 785.2 541C756 541 727 541 698 541C669 541 640 541 611 541C582 541 553 541 523.8 541C494.7 541 465.3 541 436.2 541C407 541 378 541 349 541C320 541 291 541 262 541C233 541 204 541 174.8 541C145.7 541 116.3 541 87.2 541C58 541 29 541 14.5 541L0 541Z" fill="#009444"></path><path d="M0 434L14.5 435.8C29 437.7 58 441.3 87.2 447.3C116.3 453.3 145.7 461.7 174.8 471.3C204 481 233 492 262 491.8C291 491.7 320 480.3 349 480.3C378 480.3 407 491.7 436.2 496.5C465.3 501.3 494.7 499.7 523.8 497C553 494.3 582 490.7 611 480.5C640 470.3 669 453.7 698 456.7C727 459.7 756 482.3 785.2 486C814.3 489.7 843.7 474.3 872.8 471C902 467.7 931 476.3 945.5 480.7L960 485L960 541L945.5 541C931 541 902 541 872.8 541C843.7 541 814.3 541 785.2 541C756 541 727 541 698 541C669 541 640 541 611 541C582 541 553 541 523.8 541C494.7 541 465.3 541 436.2 541C407 541 378 541 349 541C320 541 291 541 262 541C233 541 204 541 174.8 541C145.7 541 116.3 541 87.2 541C58 541 29 541 14.5 541L0 541Z" fill="#006d34"></path></svg>