<?xml version="1.0" standalone="no"?>
<!DOCTYPE svg PUBLIC "-//W3C//DTD SVG 20010904//EN"
 "http://www.w3.org/TR/2001/REC-SVG-20010904/DTD/svg10.dtd">
<svg version="1.0" xmlns="http://www.w3.org/2000/svg"
 width="985.000000pt" height="980.000000pt" viewBox="0 0 985.000000 980.000000"
 preserveAspectRatio="xMidYMid meet">

<g transform="translate(0.000000,980.000000) scale(0.100000,-0.100000)"
fill="#000000" stroke="none">
<path d="M4590 9709 c-493 -44 -979 -154 -1389 -316 -838 -330 -1561 -881
-2097 -1598 -109 -145 -224 -318 -300 -450 -16 -27 -37 -63 -47 -80 -59 -99
-235 -476 -290 -620 -196 -510 -296 -1012 -312 -1565 -32 -1052 265 -2050 868
-2910 521 -743 1270 -1341 2097 -1675 36 -14 74 -30 85 -35 115 -49 392 -137
565 -179 349 -84 615 -124 957 -142 507 -28 1061 41 1592 197 84 25 163 50
175 55 11 4 75 28 141 52 262 97 589 257 815 399 360 226 599 416 880 698 446
446 767 917 1020 1495 149 342 283 812 330 1160 57 416 74 783 49 1045 -5 47
-13 137 -20 200 -54 569 -246 1202 -516 1710 -140 263 -368 611 -517 788 -367
439 -721 754 -1151 1029 -438 279 -954 502 -1415 611 -112 27 -453 92 -530
101 -314 39 -740 52 -990 30z m670 -150 c618 -39 1234 -208 1780 -487 526
-269 956 -600 1359 -1047 497 -552 850 -1205 1035 -1915 109 -419 147 -725
146 -1179 -1 -462 -33 -739 -135 -1141 -84 -329 -172 -571 -324 -885 -227
-467 -499 -852 -864 -1224 -437 -444 -867 -742 -1462 -1013 -152 -69 -507
-195 -616 -217 -24 -5 -69 -17 -99 -25 -94 -27 -328 -73 -480 -95 -389 -55
-849 -56 -1270 -5 -247 31 -628 118 -855 196 -255 87 -616 248 -819 366 -49
29 -91 52 -93 52 -2 0 -49 30 -105 66 -450 292 -808 616 -1152 1043 -108 134
-278 374 -338 478 -284 494 -429 856 -557 1393 -115 481 -139 1137 -61 1680
68 474 199 900 411 1338 191 396 342 628 657 1012 32 39 154 169 248 264 150
154 383 355 534 463 266 190 436 292 703 423 332 161 603 259 957 344 263 63
410 86 735 115 135 12 478 12 665 0z"/>
<path d="M4615 9249 c-476 -43 -804 -117 -1240 -279 -170 -63 -456 -204 -641
-316 -495 -298 -834 -595 -1207 -1056 -274 -339 -531 -812 -695 -1279 -95
-270 -172 -646 -212 -1029 -12 -119 -12 -525 0 -690 54 -744 287 -1420 712
-2065 122 -187 206 -296 348 -455 330 -370 601 -599 1020 -860 158 -98 558
-300 595 -300 12 0 65 95 65 117 0 6 -114 67 -252 136 -309 153 -562 314 -829
529 -94 76 -333 305 -420 403 -143 162 -183 209 -243 288 -79 105 -253 368
-320 485 -262 460 -417 926 -502 1507 -26 179 -28 211 -28 540 -1 331 1 360
27 540 40 271 63 388 113 573 97 354 269 748 474 1087 50 83 194 293 209 305
4 3 40 48 81 100 201 257 526 579 715 710 28 18 52 36 55 40 12 13 122 91 215
151 463 302 981 512 1500 608 122 22 306 44 525 62 260 21 734 -6 1045 -60
516 -89 1100 -332 1575 -654 330 -223 689 -563 946 -894 180 -232 297 -416
424 -668 259 -511 391 -966 440 -1515 13 -150 13 -633 0 -758 -27 -242 -69
-498 -111 -666 -36 -143 -170 -527 -230 -658 -223 -491 -498 -892 -853 -1243
-182 -180 -234 -226 -387 -347 -184 -145 -391 -281 -612 -402 -83 -46 -366
-176 -445 -206 -35 -13 -66 -29 -68 -35 -7 -18 43 -125 59 -125 25 0 342 141
492 219 142 74 327 184 460 274 71 49 340 263 409 327 242 223 411 404 568
610 196 258 312 445 449 723 101 206 125 266 220 550 97 291 138 471 186 822
25 183 27 228 27 530 1 351 -7 455 -60 765 -43 256 -127 551 -240 837 -88 225
-270 576 -402 778 -41 62 -286 392 -301 405 -3 3 -30 34 -60 70 -78 95 -349
358 -476 465 -275 230 -538 402 -850 558 -213 106 -335 157 -557 232 -278 95
-449 135 -791 185 -253 37 -684 51 -922 29z"/>
<path d="M4717 8503 c-4 -3 -7 -124 -7 -268 0 -216 3 -265 14 -275 22 -18 226
-3 291 21 59 22 106 67 129 123 25 61 21 218 -7 275 -46 93 -137 131 -312 131
-56 0 -105 -3 -108 -7z m266 -91 c54 -31 72 -75 72 -177 0 -147 -45 -200 -168
-200 l-72 0 -3 190 c-1 104 0 196 3 204 8 19 126 8 168 -17z"/>
<path d="M4350 8460 c-16 -10 -9 -68 36 -268 14 -63 23 -116 20 -119 -9 -10
-32 15 -149 161 -63 78 -122 147 -131 155 -11 9 -33 12 -67 9 -89 -9 -88 -1
-29 -289 28 -140 55 -258 60 -263 4 -4 22 -5 39 -1 26 5 31 11 31 35 0 30 -32
209 -56 306 -7 33 -14 70 -14 83 0 26 5 22 60 -49 19 -25 71 -88 115 -140 45
-52 91 -110 104 -127 20 -29 28 -33 70 -33 26 0 55 6 66 13 23 17 20 37 -33
292 -56 263 -50 245 -81 245 -14 0 -33 -4 -41 -10z"/>
<path d="M5818 8390 c-9 -6 -31 -33 -50 -62 -50 -78 -55 -86 -162 -240 -55
-79 -100 -152 -100 -162 -1 -13 8 -22 24 -26 39 -10 53 -2 88 51 17 27 37 49
43 49 17 0 171 -39 197 -50 20 -9 22 -17 22 -75 l0 -65 37 -15 c64 -27 67 -22
60 128 -10 219 -27 419 -37 438 -6 9 -24 20 -42 24 -18 4 -40 8 -48 10 -8 2
-22 0 -32 -5z m45 -167 c4 -38 7 -96 7 -130 0 -73 -2 -74 -91 -46 -68 21 -74
26 -58 54 27 53 120 189 128 189 4 0 11 -30 14 -67z"/>
<path d="M3497 8212 c-36 -12 -49 -22 -54 -40 -6 -27 33 -537 42 -553 9 -13
48 -11 70 4 16 12 17 23 11 81 l-7 67 87 39 c47 22 96 40 108 40 12 0 39 -17
61 -40 21 -22 48 -40 60 -40 24 0 65 26 65 42 0 6 -48 63 -107 126 -60 64
-115 124 -123 133 -58 63 -154 159 -159 158 -3 0 -27 -8 -54 -17z m133 -193
c60 -66 79 -94 71 -103 -15 -18 -119 -59 -135 -53 -15 6 -24 49 -33 171 -4 66
-3 87 5 82 6 -4 48 -48 92 -97z"/>
<path d="M6340 8150 c-70 -33 -126 -94 -159 -174 -55 -133 -50 -200 18 -277
47 -54 109 -86 182 -95 53 -6 57 -5 78 22 12 15 20 32 18 38 -2 6 -30 12 -63
14 -149 9 -199 119 -126 277 39 81 94 125 159 125 56 0 92 -19 136 -72 l36
-43 10 28 c16 41 14 61 -10 91 -56 71 -197 104 -279 66z"/>
<path d="M2916 7886 l-30 -23 24 -39 c25 -40 199 -308 245 -376 13 -21 31 -38
39 -38 16 0 220 132 230 149 10 16 -12 51 -32 51 -9 0 -48 -21 -86 -45 -56
-37 -72 -43 -82 -33 -7 7 -55 78 -108 158 -165 252 -149 237 -200 196z"/>
<path d="M6884 7790 c-54 -38 -112 -79 -129 -90 -16 -12 -75 -53 -130 -91 -55
-39 -101 -74 -103 -79 -4 -11 38 -50 54 -50 17 0 64 22 64 29 0 4 13 14 29 24
28 17 29 17 103 -33 108 -72 112 -77 93 -130 -22 -61 -19 -85 12 -110 53 -41
43 -62 174 373 34 115 40 143 30 163 -10 23 -65 64 -87 64 -6 0 -55 -31 -110
-70z m96 -56 c0 -21 -57 -204 -69 -223 -8 -12 -16 -10 -48 11 -21 15 -51 38
-68 52 l-30 26 21 17 c56 47 175 132 187 132 4 1 7 -6 7 -15z"/>
<path d="M2667 7705 c-19 -19 -80 -73 -134 -121 -54 -48 -104 -92 -112 -100
-12 -11 -12 -16 3 -38 22 -35 37 -33 88 14 23 22 50 40 59 40 18 0 92 -75 218
-222 46 -54 89 -99 95 -99 24 -3 41 4 53 19 20 26 15 44 -20 83 -17 20 -70 78
-117 130 -46 52 -90 100 -98 108 -51 53 -49 77 13 126 39 32 44 54 17 78 -24
22 -23 22 -65 -18z"/>
<path d="M4575 7650 c-980 -145 -1773 -748 -2157 -1640 -185 -429 -255 -910
-202 -1397 23 -217 101 -531 169 -688 8 -16 23 -55 35 -85 30 -78 125 -258
195 -370 346 -556 904 -983 1529 -1169 261 -78 467 -111 731 -118 568 -15
1112 143 1591 462 78 52 148 100 155 107 8 7 47 39 87 71 117 94 262 243 391
402 267 331 465 765 541 1185 11 63 26 142 33 175 17 86 16 596 -2 695 -73
404 -136 607 -272 880 -66 132 -186 325 -278 445 -225 296 -545 567 -892 753
-268 144 -601 250 -919 292 -195 26 -560 26 -735 0z m305 -141 c0 -7 -46 -89
-101 -183 -56 -94 -116 -196 -134 -226 -26 -43 -264 -455 -388 -670 -11 -19
-33 -60 -50 -90 -16 -30 -33 -59 -37 -63 -7 -8 -1429 -11 -1437 -3 -12 12 120
199 236 335 55 66 217 230 285 289 196 173 474 343 704 432 42 17 84 34 93 39
28 16 252 80 349 100 52 10 142 24 200 31 58 6 107 14 109 16 11 10 171 3 171
-7z m349 1 c31 -5 103 -17 161 -26 366 -54 775 -228 1088 -462 166 -123 269
-220 434 -405 112 -127 258 -330 246 -343 -3 -2 -335 -4 -738 -4 -816 0 -736
-7 -776 69 -10 20 -26 47 -35 61 -9 14 -30 50 -46 80 -17 30 -67 118 -112 194
-44 76 -81 141 -81 143 0 2 -16 29 -35 59 -19 30 -35 56 -35 58 0 2 -74 131
-165 287 -91 155 -165 286 -165 291 0 11 193 10 259 -2z m-253 -193 c30 -50
200 -347 248 -432 6 -11 30 -51 52 -90 46 -79 197 -336 238 -405 43 -74 60
-109 54 -116 -7 -7 -1279 -6 -1286 1 -7 7 8 34 200 360 36 61 77 133 93 160
50 90 296 517 321 557 14 21 29 36 34 33 5 -3 26 -34 46 -68z m2266 -1179 c62
-117 120 -253 168 -397 146 -435 169 -954 60 -1406 -51 -212 -131 -433 -217
-594 -52 -99 -52 -99 -83 -44 -47 84 -72 128 -80 138 -4 6 -19 30 -32 55 -14
25 -69 122 -123 215 -55 94 -115 199 -135 235 -38 66 -158 275 -218 378 -19
31 -50 86 -69 122 -19 36 -39 69 -44 75 -17 17 -9 36 59 153 38 64 71 124 75
132 4 8 11 22 17 30 5 8 41 69 79 135 38 66 138 239 223 385 85 146 181 311
213 367 33 57 61 103 62 103 1 0 21 -37 45 -82z m-1610 30 c14 -11 151 -241
278 -468 29 -52 239 -416 366 -635 13 -22 34 -59 46 -83 l23 -44 -34 -61 c-19
-34 -119 -208 -224 -387 -194 -334 -217 -373 -247 -425 -9 -16 -33 -57 -52
-90 -20 -33 -44 -76 -55 -95 -10 -19 -38 -68 -62 -108 l-43 -72 -711 2 -711 3
-34 60 c-19 33 -44 76 -55 95 -11 19 -37 64 -57 100 -20 36 -46 81 -57 100
-11 19 -53 91 -92 160 -39 69 -75 132 -81 140 -5 8 -35 60 -66 115 -32 55
-102 176 -156 269 -54 94 -98 179 -98 190 0 12 11 39 23 61 13 22 84 144 157
270 73 127 148 255 165 285 17 30 67 116 110 190 43 74 88 153 100 175 13 22
50 87 84 145 l61 105 693 5 c380 3 697 6 703 8 5 1 18 -4 26 -10z m-1542 -14
c0 -9 -58 -115 -129 -237 -71 -122 -160 -278 -198 -347 -39 -69 -117 -204
-173 -300 -57 -96 -110 -187 -119 -202 -9 -16 -20 -28 -26 -28 -9 1 -102 149
-163 260 -11 19 -52 91 -92 160 -164 284 -400 699 -400 704 0 3 293 6 650 6
586 0 650 -2 650 -16z m2954 8 c7 -11 -41 -102 -143 -272 -70 -116 -200 -340
-230 -395 -12 -22 -25 -47 -31 -55 -5 -8 -55 -94 -110 -190 -56 -96 -108 -181
-115 -189 -22 -23 -10 -42 -212 309 -50 85 -138 241 -198 345 -59 105 -139
243 -176 307 -38 64 -69 124 -69 132 0 14 66 16 639 16 352 0 642 -4 645 -8z
m-4329 -54 c17 -29 45 -80 63 -113 19 -33 58 -100 87 -150 166 -283 487 -838
513 -888 15 -29 19 -21 -141 -297 -94 -162 -243 -422 -259 -450 -11 -19 -63
-109 -115 -200 -53 -91 -116 -200 -140 -242 -25 -43 -49 -78 -54 -78 -11 0
-107 198 -153 318 -182 470 -215 1061 -87 1564 62 245 205 588 244 588 7 0 26
-24 42 -52z m978 -1688 c118 -206 243 -422 277 -480 93 -156 120 -206 120
-224 0 -15 -59 -16 -642 -14 -592 3 -643 4 -642 20 1 9 55 108 120 220 64 111
135 234 156 273 21 38 42 72 46 75 4 3 17 25 29 50 13 25 41 77 64 115 23 39
53 90 67 115 35 64 90 157 125 213 29 45 32 47 48 30 9 -10 113 -187 232 -393z
m2839 208 c211 -371 350 -612 408 -708 64 -106 110 -194 110 -210 0 -7 -210
-10 -651 -10 l-651 0 6 26 c4 14 15 38 25 53 18 26 457 786 514 891 53 96 97
160 110 160 7 0 65 -91 129 -202z m634 -1033 c-25 -101 -355 -490 -556 -656
-36 -30 -67 -57 -70 -60 -11 -13 -238 -169 -245 -169 -5 0 -16 -6 -24 -14 -31
-27 -228 -125 -351 -174 -235 -94 -418 -141 -640 -166 -268 -30 -351 -28 -323
6 13 16 101 165 281 478 312 545 436 755 446 762 6 4 337 7 735 8 399 0 727 3
730 5 13 13 22 2 17 -20z m-3003 0 c8 -8 32 -45 52 -82 21 -37 66 -115 100
-173 86 -146 155 -266 370 -640 103 -179 191 -329 196 -335 24 -24 4 -28 -123
-22 -176 9 -305 29 -481 77 -193 52 -312 97 -489 185 -180 90 -344 194 -462
295 -187 158 -339 314 -443 452 -135 180 -170 238 -150 250 6 4 328 8 714 8
603 0 704 -2 716 -15z m1401 5 c2 -3 -21 -50 -53 -105 -32 -55 -118 -203 -191
-330 -127 -219 -208 -360 -290 -505 -59 -106 -101 -170 -110 -170 -11 0 -70
96 -240 395 -138 241 -220 383 -349 605 -33 57 -57 107 -52 110 12 7 1278 7
1285 0z"/>
<path d="M4620 5885 c-12 -19 -18 -40 -14 -46 4 -8 3 -9 -5 -5 -6 4 -14 0 -17
-11 -3 -10 -19 -44 -36 -76 -16 -31 -26 -62 -22 -69 4 -7 3 -8 -4 -4 -7 4 -28
-27 -57 -84 -38 -75 -49 -90 -63 -84 -39 17 -83 16 -102 -1 -11 -10 -17 -22
-13 -28 3 -5 0 -8 -7 -5 -7 2 -25 -6 -38 -19 -14 -13 -31 -21 -39 -19 -7 3
-25 -6 -41 -19 -37 -31 -35 -59 7 -122 33 -49 39 -73 19 -73 -9 0 -9 -3 -1
-11 6 -6 9 -18 6 -25 -3 -8 0 -14 6 -14 7 0 11 -24 11 -64 0 -53 3 -65 18 -69
18 -4 84 30 91 47 9 23 97 106 112 106 27 0 30 13 8 36 -13 14 -22 37 -23 60
-1 42 18 57 30 22 8 -22 8 -22 14 7 l7 30 15 -34 c8 -18 18 -29 21 -24 4 6 -6
34 -22 62 l-28 52 34 87 c19 48 40 101 48 117 17 34 125 304 125 311 0 15 -22
-2 -40 -31z m-185 -411 c-12 -24 -15 -25 -15 -8 0 11 5 25 12 32 18 18 20 8 3
-24z m-30 -14 c1 -8 -4 -18 -10 -22 -6 -5 -5 -11 4 -17 9 -6 10 -11 2 -15 -6
-4 -11 -1 -11 6 0 7 -12 0 -25 -15 -14 -16 -29 -26 -34 -22 -5 3 -12 -4 -16
-15 -4 -11 -17 -28 -31 -36 -19 -13 -27 -14 -39 -4 -18 15 -20 -1 -3 -18 7 -7
8 -12 2 -12 -5 0 -18 9 -27 21 -10 11 -21 18 -24 15 -3 -3 6 -19 21 -36 26
-31 36 -80 16 -80 -5 0 -10 8 -10 18 0 9 -14 34 -30 55 -24 32 -27 43 -19 64
17 44 29 63 43 63 7 0 26 10 41 22 29 22 108 49 135 45 8 -1 15 -9 15 -17z
m-39 -134 c-23 -48 -46 -79 -46 -61 0 14 62 127 67 122 3 -3 -7 -31 -21 -61z
m-41 -26 c-3 -5 -17 -10 -31 -10 -14 0 -22 4 -19 10 3 6 17 10 31 10 14 0 22
-4 19 -10z m-62 -139 c6 -46 -2 -93 -14 -85 -12 7 -12 124 0 124 4 0 11 -17
14 -39z"/>
<path d="M4953 5800 c-54 -22 -64 -102 -39 -325 8 -66 12 -123 9 -127 -2 -5
-25 -8 -51 -8 -55 0 -47 -14 18 -33 35 -10 45 -18 51 -41 12 -45 2 -56 -52
-56 -31 0 -51 -5 -53 -12 -2 -7 -11 -35 -19 -61 l-15 -49 32 7 c17 3 52 9 77
12 l46 5 7 -54 c3 -29 9 -70 12 -91 13 -81 -46 -110 -132 -64 -45 24 -129 97
-136 118 -3 8 -7 9 -10 3 -9 -14 52 -77 115 -118 104 -69 245 -96 308 -59 50
30 61 88 43 231 -7 59 -13 120 -14 135 0 28 0 28 53 21 62 -8 87 -19 87 -40 0
-20 36 -129 61 -181 10 -24 19 -45 19 -48 0 -16 96 -148 132 -181 98 -91 227
-144 346 -144 99 1 157 27 189 85 60 106 1 238 -145 328 -63 39 -237 110 -254
105 -6 -2 14 -11 43 -21 68 -21 169 -102 205 -163 24 -41 26 -52 22 -123 -3
-60 -9 -84 -28 -109 -67 -90 -223 -74 -335 35 -87 84 -167 233 -194 363 -10
49 -10 56 6 67 13 10 13 13 2 13 -31 0 -41 21 -64 131 -25 119 -58 233 -75
259 -14 22 -12 -1 5 -49 17 -48 68 -302 61 -308 -7 -7 -105 9 -120 21 -10 8
-20 57 -31 161 -8 83 -20 189 -26 237 -6 48 -8 91 -5 96 8 13 -60 42 -97 41
-18 0 -42 -4 -54 -9z"/>
<path d="M5180 5685 c0 -5 5 -17 10 -25 5 -8 10 -10 10 -5 0 6 -5 17 -10 25
-5 8 -10 11 -10 5z"/>
<path d="M4087 5263 c-12 -20 -3 -65 14 -76 11 -7 19 -19 19 -27 0 -8 7 -28
15 -44 8 -15 15 -34 15 -42 0 -7 4 -15 9 -18 10 -7 -1 40 -39 166 -11 38 -25
55 -33 41z"/>
<path d="M4470 5243 c0 -5 5 -15 10 -23 8 -12 10 -11 10 8 0 12 -4 22 -10 22
-5 0 -10 -3 -10 -7z"/>
<path d="M4576 5204 c-11 -42 -106 -77 -163 -59 -36 11 -28 -14 17 -56 42 -39
51 -55 25 -45 -8 3 -15 1 -15 -3 0 -5 -3 -17 -6 -25 -8 -21 20 -11 58 20 40
33 61 37 120 21 66 -17 134 -11 142 11 3 10 9 23 12 31 5 11 2 11 -15 -1 -12
-9 -30 -14 -40 -11 -10 2 -25 -2 -34 -11 -13 -13 -16 -14 -21 -1 -3 8 -11 15
-18 15 -9 0 -8 -3 2 -10 9 -6 10 -10 3 -10 -25 0 -22 19 7 48 49 49 33 88 -41
106 -23 5 -28 2 -33 -20z"/>
<path d="M5453 5193 c9 -2 23 -2 30 0 6 3 -1 5 -18 5 -16 0 -22 -2 -12 -5z"/>
<path d="M5508 5183 c6 -2 18 -2 25 0 6 3 1 5 -13 5 -14 0 -19 -2 -12 -5z"/>
<path d="M5598 5163 c7 -3 16 -2 19 1 4 3 -2 6 -13 5 -11 0 -14 -3 -6 -6z"/>
<path d="M4332 4995 l-22 -25 24 0 c29 0 36 8 27 33 -6 16 -9 16 -29 -8z"/>
<path d="M4222 5001 c-21 -13 -94 -164 -76 -157 11 4 14 1 12 -12 -2 -9 -10
-17 -18 -17 -9 0 -16 -11 -18 -30 -2 -27 -1 -28 10 -10 6 11 20 29 31 40 13
15 17 30 14 55 -3 19 -3 30 0 23 8 -20 33 -2 53 37 11 21 23 40 28 42 5 1 2
11 -7 20 -10 10 -22 14 -29 9z"/>
<path d="M4380 4990 c0 -5 7 -7 15 -4 8 4 15 8 15 10 0 2 -7 4 -15 4 -8 0 -15
-4 -15 -10z"/>
<path d="M4683 4623 c15 -2 37 -2 50 0 12 2 0 4 -28 4 -27 0 -38 -2 -22 -4z"/>
<path d="M5108 4623 c7 -3 16 -2 19 1 4 3 -2 6 -13 5 -11 0 -14 -3 -6 -6z"/>
<path d="M4545 4607 c-28 -9 -45 -22 -59 -47 -14 -25 -16 -31 -5 -23 9 7 19
10 22 6 4 -3 7 -125 7 -269 0 -251 -1 -266 -22 -309 -12 -25 -26 -45 -30 -45
-4 0 -8 127 -8 283 -1 190 -4 276 -10 265 -6 -10 -9 -127 -8 -300 l3 -283 35
-2 c19 -1 29 0 23 3 -18 8 -16 29 7 74 26 50 42 55 201 55 146 0 173 -9 200
-70 22 -49 12 -63 -31 -42 -27 14 -50 15 -178 5 -81 -6 -154 -15 -162 -19 -10
-6 -3 -8 20 -4 19 3 98 6 175 6 142 0 162 0 385 0 69 0 148 -2 175 -6 32 -4
46 -3 40 3 -5 5 -77 15 -158 22 -133 11 -151 10 -183 -5 -52 -25 -71 -1 -39
49 14 21 14 24 0 30 -14 5 -16 37 -13 281 2 222 0 276 -10 280 -21 8 -24 6
-16 -7 8 -13 8 -548 0 -556 -3 -2 -17 5 -31 16 -44 35 -123 46 -238 32 -82 -9
-101 -9 -108 2 -5 7 -9 133 -9 279 0 205 3 269 13 277 7 6 35 15 62 20 34 7
40 10 20 10 -16 0 -48 -5 -70 -11z"/>
<path d="M4791 4616 c2 -2 18 -6 34 -10 22 -5 26 -4 15 4 -14 9 -59 15 -49 6z"/>
<path d="M5010 4610 c-11 -8 -7 -9 15 -4 37 8 45 14 19 14 -10 0 -26 -5 -34
-10z"/>
<path d="M5218 4613 c6 -2 18 -2 25 0 6 3 1 5 -13 5 -14 0 -19 -2 -12 -5z"/>
<path d="M5278 4603 c7 -3 16 -2 19 1 4 3 -2 6 -13 5 -11 0 -14 -3 -6 -6z"/>
<path d="M5320 4309 l0 -292 -37 6 c-107 17 -209 19 -241 5 -32 -12 -30 -13
47 -10 44 2 118 -1 164 -8 l84 -12 22 -46 c22 -44 22 -47 5 -59 -16 -12 -14
-13 14 -13 l33 0 -4 303 c-3 305 -5 333 -24 345 -6 4 -18 22 -27 40 -9 17 -21
32 -26 32 -6 0 -10 -109 -10 -291z m55 209 c18 -30 20 -55 23 -305 1 -166 -2
-274 -8 -278 -5 -3 -18 14 -30 39 -18 42 -20 64 -20 310 0 147 4 266 8 266 4
0 17 -15 27 -32z"/>
<path d="M4949 4563 c-13 -16 -12 -17 4 -4 16 13 21 21 13 21 -2 0 -10 -8 -17
-17z"/>
<path d="M5458 4175 c-2 -198 -2 -362 -1 -364 1 -1 6 0 12 4 14 8 15 683 1
705 -6 10 -10 -112 -12 -345z"/>
<path d="M4370 4165 l0 -355 33 1 c29 1 30 2 7 8 l-25 7 0 347 c0 191 -3 347
-7 347 -5 0 -8 -160 -8 -355z"/>
<path d="M4446 4505 c4 -8 10 -12 15 -9 14 8 10 24 -6 24 -9 0 -12 -6 -9 -15z"/>
<path d="M4588 3837 c-76 -5 -138 -14 -138 -20 0 -5 10 -7 23 -4 12 3 82 9
154 13 73 3 130 10 127 15 -3 5 -11 8 -17 7 -7 -1 -74 -6 -149 -11z"/>
<path d="M4771 3846 c2 -2 27 -6 54 -10 34 -4 45 -3 35 4 -14 9 -99 15 -89 6z"/>
<path d="M5003 3842 c-6 -4 12 -7 40 -7 29 0 120 -3 202 -7 l150 -7 -145 14
c-170 16 -231 17 -247 7z"/>
<path d="M4903 3823 c15 -2 37 -2 50 0 12 2 0 4 -28 4 -27 0 -38 -2 -22 -4z"/>
<path d="M7374 7467 c-43 -45 -165 -159 -262 -246 -45 -41 -82 -80 -82 -87 0
-19 169 -183 212 -205 120 -61 304 27 375 180 45 95 20 170 -101 311 -78 90
-94 95 -142 47z m108 -114 c46 -51 58 -76 58 -126 0 -68 -19 -105 -83 -163
-60 -55 -113 -73 -180 -59 -28 6 -127 88 -127 106 0 6 101 106 215 212 33 31
67 57 76 57 8 0 27 -12 41 -27z"/>
<path d="M2245 7256 c-16 -8 -37 -21 -45 -28 -32 -27 -150 -172 -150 -184 0
-7 33 -39 73 -73 211 -176 333 -271 348 -271 20 0 49 36 49 61 0 9 -33 42 -72
74 -40 31 -77 64 -81 71 -12 22 45 74 80 74 15 0 63 -11 106 -25 100 -32 110
-32 142 7 26 30 26 32 9 45 -29 21 -154 56 -209 58 l-50 2 3 33 c5 50 -23 112
-63 137 -45 30 -102 37 -140 19z m96 -115 c16 -16 29 -40 29 -53 0 -24 -48
-110 -68 -122 -10 -6 -117 73 -134 98 -7 10 33 70 62 93 28 23 79 15 111 -16z"/>
<path d="M7800 6910 c-41 -27 -102 -66 -135 -85 -114 -68 -230 -144 -233 -153
-3 -10 133 -235 153 -252 17 -14 55 3 55 26 0 8 -20 49 -45 92 -25 42 -45 81
-45 87 0 5 30 29 68 53 76 49 64 52 125 -43 34 -53 64 -67 87 -41 10 13 6 27
-29 84 -22 38 -41 75 -41 83 0 8 20 26 44 40 79 49 78 49 133 -43 28 -45 55
-84 60 -85 5 -2 21 5 34 16 l23 19 -68 113 c-63 104 -90 140 -105 138 -3 0
-40 -22 -81 -49z"/>
<path d="M1802 6658 c-5 -7 -19 -33 -32 -57 l-22 -43 30 -32 c92 -99 171 -183
197 -210 17 -17 59 -64 94 -104 35 -39 70 -72 78 -72 7 0 21 16 30 35 l17 35
-47 48 -47 48 43 89 c57 117 61 120 134 105 56 -12 57 -12 80 14 47 56 28 77
-82 91 -33 4 -139 20 -235 36 -196 32 -223 34 -238 17z m193 -108 c59 -10 113
-24 118 -29 12 -12 -49 -141 -67 -141 -17 0 -188 175 -180 183 10 9 5 10 129
-13z"/>
<path d="M7925 6345 c-223 -77 -240 -84 -237 -106 3 -29 20 -49 41 -49 9 0
105 29 214 65 109 36 202 63 208 60 12 -8 -5 -23 -195 -173 -82 -64 -155 -122
-164 -129 -10 -9 -13 -22 -8 -44 12 -60 8 -59 255 -60 124 -1 237 -4 251 -8
l25 -7 -30 -16 c-16 -8 -111 -43 -210 -77 -100 -34 -187 -66 -195 -71 -20 -13
-1 -64 26 -68 22 -3 481 151 496 166 10 10 -12 100 -32 133 -7 11 -52 16 -192
22 -101 4 -198 10 -217 13 l-33 5 23 25 c13 14 84 73 157 131 85 68 135 115
139 130 12 51 -31 144 -66 142 -9 0 -124 -38 -256 -84z"/>
<path d="M1582 6193 c-19 -35 -83 -253 -80 -270 2 -12 65 -38 237 -95 129 -43
245 -78 257 -78 24 0 24 0 84 173 16 49 30 97 30 107 0 20 -47 37 -61 23 -5
-5 -22 -46 -38 -92 -16 -46 -34 -88 -39 -93 -10 -10 -119 20 -148 40 -7 5 -3
31 14 85 27 89 25 110 -15 105 -25 -3 -31 -11 -54 -78 -15 -42 -33 -76 -41
-78 -27 -5 -128 38 -128 56 0 9 12 53 27 99 28 86 27 95 -14 107 -15 5 -25 2
-31 -11z"/>
<path d="M1422 5628 c-6 -6 -12 -27 -12 -45 0 -29 4 -33 38 -42 20 -6 68 -13
105 -17 41 -4 71 -12 74 -20 5 -14 -23 -203 -32 -212 -3 -3 -48 0 -100 7 -52
8 -101 11 -109 8 -21 -8 -31 -66 -14 -83 7 -8 56 -18 113 -24 55 -7 170 -22
255 -35 107 -16 159 -20 168 -13 6 6 12 27 12 48 l0 37 -115 18 c-63 9 -117
20 -119 24 -8 12 19 200 29 210 6 6 52 4 120 -5 103 -14 111 -13 123 3 7 10
12 32 10 48 l-3 30 -110 16 c-60 9 -164 23 -230 33 -66 9 -136 19 -155 22 -21
3 -40 0 -48 -8z"/>
<path d="M8310 5478 l-155 -101 -95 -9 c-111 -11 -128 -21 -114 -70 l10 -33
134 0 135 0 144 -53 c112 -41 146 -50 153 -40 11 18 10 33 -3 61 -11 24 -59
43 -204 81 -24 7 -40 17 -40 26 0 8 45 43 100 77 55 34 103 70 106 80 7 19 1
62 -10 75 -3 4 -76 -38 -161 -94z"/>
<path d="M1585 4418 c-4 -10 -20 -57 -35 -105 l-28 -88 -116 -3 c-64 -1 -116
-6 -116 -11 0 -4 33 -30 72 -57 113 -77 110 -70 88 -151 -10 -37 -23 -83 -28
-100 -6 -19 -7 -33 -1 -33 5 0 41 25 80 55 39 30 79 55 89 55 10 0 53 -27 96
-60 43 -33 81 -60 86 -60 4 0 0 21 -8 48 -59 184 -62 169 48 244 l93 63 -122
3 -122 3 -21 72 c-33 114 -47 145 -55 125z"/>
<path d="M8148 4329 l-33 -104 -123 -5 -124 -5 92 -63 c50 -35 94 -70 96 -77
3 -7 -8 -55 -24 -107 -19 -57 -26 -94 -20 -97 6 -2 13 1 17 6 15 21 137 103
153 103 10 0 55 -27 100 -60 45 -33 83 -58 85 -56 3 2 -10 43 -26 91 -44 124
-44 126 42 184 118 80 118 81 -11 81 -61 0 -113 4 -116 9 -4 5 -18 49 -32 98
-14 48 -29 92 -34 97 -4 4 -23 -38 -42 -95z"/>
<path d="M7629 3281 l-24 -30 -65 15 c-116 26 -206 1 -249 -70 -43 -70 -14
-155 59 -177 45 -14 72 -5 78 25 3 11 -4 16 -21 16 -33 0 -77 36 -77 63 1 71
36 97 132 97 89 0 111 -8 103 -34 -19 -60 -4 -80 34 -45 29 27 32 26 207 -91
111 -74 141 -90 173 -90 24 0 44 7 54 18 28 30 21 42 -25 42 -37 0 -63 13
-178 86 -177 113 -173 109 -154 146 12 23 13 33 3 44 -16 20 -23 18 -50 -15z"/>
<path d="M2207 3283 c-15 -14 -4 -36 68 -136 41 -58 75 -110 75 -116 0 -6 -13
-17 -29 -26 l-30 -15 -46 60 c-52 68 -70 80 -117 80 -38 -1 -67 -22 -86 -63
-11 -26 -15 -28 -55 -22 -50 7 -119 -23 -150 -67 -27 -37 -35 -153 -14 -194
21 -41 39 -55 57 -44 13 8 13 14 1 42 -21 52 -25 97 -10 140 16 51 42 68 100
68 88 0 168 -86 153 -165 -8 -47 -26 -59 -75 -52 -44 6 -61 -11 -39 -38 18
-21 99 -19 126 3 24 20 44 72 44 114 0 33 -28 91 -64 132 -29 33 -30 39 -16
67 13 23 53 25 74 4 8 -9 34 -42 57 -75 23 -33 47 -60 53 -60 7 0 31 14 55 31
l42 32 28 -27 c27 -26 55 -34 65 -18 5 8 -66 118 -118 183 -12 15 -43 59 -71
98 -46 67 -63 80 -78 64z"/>
<path d="M7450 2998 c-34 -40 -104 -118 -154 -173 -144 -156 -159 -174 -152
-190 10 -27 32 -16 95 50 33 36 65 65 69 65 10 0 102 -90 102 -100 0 -4 -9
-15 -20 -25 -10 -9 -26 -39 -35 -65 -19 -57 -11 -85 35 -123 52 -45 126 -32
173 30 40 53 37 93 -13 147 -22 24 -40 49 -40 57 0 8 18 32 38 54 70 73 62 72
136 9 75 -63 129 -80 159 -49 23 22 15 32 -31 40 -25 4 -54 22 -88 53 -28 26
-88 80 -132 121 -81 74 -95 96 -68 107 23 9 26 31 7 48 -17 15 -22 12 -81 -56z
m114 -163 c5 -13 -89 -125 -105 -125 -10 0 -92 69 -102 85 -5 9 12 35 49 74
l56 61 48 -41 c27 -23 51 -47 54 -54z m-63 -254 c33 -33 36 -56 13 -89 -17
-24 -44 -28 -77 -11 -43 23 -49 61 -16 103 26 33 44 33 80 -3z"/>
<path d="M2494 2885 c-4 -8 0 -25 8 -38 8 -12 13 -27 11 -34 -2 -6 -66 -66
-142 -132 -127 -111 -139 -124 -145 -162 -5 -33 -3 -44 11 -55 26 -19 36 -12
46 29 7 28 31 57 105 126 54 49 114 103 136 120 l38 31 28 -20 c31 -22 46 -25
55 -10 7 11 -16 43 -81 113 -48 50 -61 56 -70 32z"/>
<path d="M3034 2691 c-38 -23 -61 -71 -70 -144 -4 -37 -11 -57 -20 -57 -14 0
-67 44 -178 146 -71 67 -90 75 -100 47 -5 -13 16 -39 85 -103 85 -79 91 -87
79 -106 -7 -12 -22 -27 -33 -33 -17 -11 -24 -9 -51 17 -87 83 -187 82 -251 -3
-42 -54 -46 -129 -11 -189 51 -87 132 -133 212 -121 42 6 44 8 44 41 l0 35
-49 -7 c-67 -9 -116 9 -146 54 -56 82 -13 191 75 192 37 0 67 -17 116 -63 52
-50 57 -50 105 -2 24 25 49 45 56 45 7 0 24 -11 39 -25 30 -28 42 -28 58 -2 8
13 5 21 -12 37 -25 23 -30 39 -7 20 16 -13 16 -12 21 37 7 84 48 137 106 135
17 0 38 -8 47 -16 25 -23 33 -20 29 11 -2 20 -14 34 -43 50 -49 28 -61 28
-101 4z"/>
<path d="M6688 2589 c-39 -20 -49 -45 -23 -55 8 -3 38 2 67 12 29 10 78 17
108 17 66 -2 142 -22 137 -37 -2 -6 -51 -49 -110 -96 -140 -112 -135 -107
-115 -127 16 -15 21 -13 73 28 173 135 166 131 186 113 27 -24 24 -40 -13 -71
-97 -83 -111 -101 -105 -140 9 -51 42 -83 86 -83 44 1 70 14 124 67 69 66 109
79 140 45 31 -34 22 -81 -23 -123 -60 -58 -95 -72 -152 -66 -45 6 -48 5 -54
-20 -8 -31 7 -43 59 -43 75 0 197 82 232 156 38 81 -10 174 -90 174 -44 0 -65
-11 -139 -77 -54 -48 -89 -61 -111 -43 -24 20 -18 46 19 76 46 40 117 98 129
106 6 3 -6 25 -27 51 -20 24 -36 47 -36 50 0 3 11 17 25 30 17 15 24 29 19 40
-8 22 -20 21 -51 -3 -23 -18 -29 -19 -47 -7 -71 47 -242 61 -308 26z"/>
<path d="M3057 2373 c-4 -3 -7 -13 -7 -22 0 -20 336 -241 436 -288 66 -30 74
-36 80 -68 9 -50 -2 -84 -31 -91 -29 -7 -85 10 -120 38 -14 11 -27 19 -28 17
-11 -19 -37 -112 -37 -130 0 -13 13 -46 28 -74 23 -42 37 -55 91 -82 37 -18
84 -33 110 -35 l46 -3 -3 -55 c-3 -60 2 -71 35 -89 37 -19 41 -13 39 57 -1 56
4 77 31 132 17 36 39 83 48 105 49 122 45 117 91 110 33 -5 43 -2 48 10 3 9 6
18 6 20 0 1 -109 51 -242 110 -198 87 -270 125 -388 203 -80 52 -161 106 -181
119 -38 25 -42 26 -52 16z m647 -408 c38 -17 56 -30 56 -43 0 -25 -73 -188
-95 -212 -14 -15 -31 -20 -69 -20 -98 0 -191 73 -184 145 3 25 7 30 28 27 136
-15 134 -15 163 12 22 20 27 34 27 71 0 25 4 45 9 45 5 0 34 -11 65 -25z"/>
<path d="M6263 2338 c-24 -12 -28 -24 -15 -46 7 -10 22 -10 80 0 68 11 74 11
149 -16 94 -33 97 -34 103 -21 3 6 -32 29 -78 53 -74 37 -90 42 -150 41 -37 0
-77 -5 -89 -11z"/>
<path d="M6554 2214 c-60 -31 -143 -76 -184 -99 -41 -22 -119 -63 -172 -90
-54 -28 -98 -54 -98 -60 0 -5 4 -17 10 -25 7 -12 29 -4 128 48 66 34 124 62
130 62 11 0 98 -155 107 -193 9 -33 -26 -100 -60 -115 -29 -13 -74 -16 -91 -4
-22 15 -36 54 -30 88 7 33 46 74 72 74 20 0 27 19 14 35 -28 33 -106 1 -136
-56 -33 -65 -8 -156 53 -196 53 -35 152 -11 195 47 26 36 35 37 59 6 28 -36
74 -52 107 -36 l27 12 -24 19 c-13 10 -29 19 -37 19 -15 0 -94 149 -94 177 1
22 37 66 67 82 39 20 73 13 109 -23 28 -28 34 -41 34 -77 0 -27 -8 -57 -21
-78 -20 -33 -20 -35 -3 -48 32 -24 53 -15 78 34 32 62 14 150 -43 214 -62 69
-151 70 -230 2 l-40 -34 -21 41 c-11 22 -18 45 -15 49 6 10 138 85 198 113 37
17 44 31 28 56 -6 10 -34 0 -117 -44z"/>
<path d="M2970 2164 c-52 -36 -90 -108 -90 -170 0 -65 34 -112 108 -151 45
-24 54 -26 62 -13 17 26 11 35 -38 57 -76 35 -97 116 -47 183 50 68 112 75
158 20 24 -28 28 -69 12 -119 -9 -30 31 -39 58 -13 41 38 75 45 112 22 34 -21
34 -21 44 -1 8 15 7 23 -5 36 -31 31 -73 46 -109 39 -32 -6 -35 -4 -35 19 0
14 -12 40 -27 58 -53 62 -141 77 -203 33z"/>
<path d="M5894 1916 c-45 -13 -141 -38 -213 -56 -120 -30 -132 -35 -129 -54 2
-15 12 -22 38 -26 28 -4 35 -10 41 -35 32 -137 73 -272 93 -304 14 -21 40 -49
58 -62 29 -21 44 -24 128 -24 113 1 160 19 160 61 0 21 -3 25 -17 19 -131 -55
-227 -44 -273 30 -10 17 -32 84 -50 150 -18 66 -36 133 -41 149 -6 19 -6 33 0
39 6 6 57 23 115 38 78 20 107 24 114 16 16 -21 50 -173 45 -201 -6 -29 -37
-56 -65 -56 -27 0 -32 -20 -10 -42 18 -18 24 -19 56 -8 39 12 73 49 83 88 3
13 -5 73 -17 133 -18 83 -20 113 -12 121 18 18 15 48 -5 47 -10 0 -55 -11 -99
-23z"/>
<path d="M3980 1890 c0 -12 10 -24 24 -30 13 -5 27 -13 30 -18 3 -5 -15 -83
-39 -173 -25 -90 -45 -176 -45 -191 0 -44 17 -77 45 -84 35 -9 40 0 27 43 -10
33 -6 56 30 198 22 88 44 166 48 174 5 9 24 15 46 15 32 1 39 5 39 21 0 16
-15 23 -85 42 -106 28 -120 29 -120 3z"/>
<path d="M4228 1828 c-2 -13 3 -28 11 -34 13 -10 12 -22 -3 -93 -27 -122 -11
-177 62 -215 42 -22 90 -20 130 4 39 24 54 57 75 159 17 80 20 85 56 96 16 5
21 4 17 -4 -5 -8 21 -12 86 -13 113 -3 167 -4 191 -6 14 -2 18 -9 15 -34 l-3
-33 -80 -1 c-94 -1 -138 -19 -153 -62 -30 -87 31 -132 179 -132 66 0 82 -3 99
-20 27 -27 25 -56 -5 -85 -21 -22 -33 -25 -95 -25 -82 0 -122 16 -149 61 -18
29 -18 29 -41 11 -29 -23 -21 -53 23 -86 61 -45 174 -56 274 -25 59 19 93 96
68 156 -22 53 -55 67 -166 69 -102 2 -129 11 -129 43 0 34 22 41 132 41 l108
0 0 48 c0 57 12 72 57 72 28 0 33 4 33 24 0 27 -2 27 -350 41 -113 5 -203 17
-345 46 -27 6 -60 12 -72 15 -16 3 -22 -1 -25 -18z m195 -69 c20 -5 37 -12 37
-14 0 -28 -46 -189 -57 -200 -18 -19 -73 -19 -98 -1 -18 13 -19 19 -7 109 6
52 15 102 18 111 7 18 19 17 107 -5z"/>
<path d="M5764 1135 c-17 -13 -17 -16 -4 -25 8 -5 26 -10 39 -10 43 0 150 -72
151 -102 0 -20 -44 -15 -101 12 -54 25 -76 30 -141 30 -79 0 -93 -6 -82 -35 5
-13 15 -15 46 -10 85 15 199 -3 228 -35 9 -9 27 -17 40 -16 22 1 29 -11 76
-128 48 -123 77 -166 110 -166 25 0 26 22 2 44 -14 12 -42 65 -66 126 -56 145
-58 157 -33 165 12 3 21 13 21 22 0 12 -7 14 -33 9 -27 -5 -38 -2 -56 18 -22
23 -22 25 -6 49 32 49 -20 91 -59 48 -17 -18 -18 -18 -65 0 -43 16 -51 16 -67
4z"/>
<path d="M3755 999 c-4 -5 -4 -13 0 -18 5 -9 101 -41 168 -57 15 -3 30 -10 33
-15 3 -5 -5 -41 -16 -80 -31 -104 -80 -141 -143 -108 -43 23 -50 66 -16 100
17 17 28 19 65 13 36 -5 44 -4 44 10 0 8 -14 23 -30 31 -24 13 -38 14 -69 5
-32 -8 -43 -18 -60 -53 -25 -51 -26 -69 -6 -106 18 -35 62 -54 115 -49 39 3
40 3 40 -30 0 -41 14 -68 41 -83 20 -10 21 -9 14 29 -8 48 17 152 42 169 25
19 77 16 104 -6 48 -39 18 -136 -50 -155 -21 -6 -31 -15 -31 -28 0 -48 73 -22
120 44 71 97 16 198 -110 202 -20 1 -24 37 -7 60 14 19 16 19 110 -9 107 -31
111 -32 115 -13 2 9 -23 21 -70 35 -198 59 -249 75 -320 97 -44 14 -80 20 -83
15z"/>
<path d="M5740 925 c-164 -43 -200 -56 -200 -71 0 -19 10 -18 118 13 85 24 95
25 109 10 22 -22 10 -44 -29 -52 -101 -22 -138 -57 -118 -110 6 -16 17 -33 23
-37 20 -13 77 -9 133 9 48 15 55 15 77 0 18 -12 23 -22 20 -41 -7 -36 -31 -53
-93 -65 -47 -8 -60 -7 -90 8 -31 16 -37 16 -49 4 -11 -13 -11 -17 1 -30 36
-36 139 -37 209 -2 47 23 60 40 66 88 5 33 1 44 -20 65 -30 30 -63 33 -130 10
-57 -19 -101 -16 -105 10 -6 27 8 35 89 55 79 19 81 22 64 83 -6 23 -3 29 19
39 29 14 35 39 9 38 -10 0 -56 -11 -103 -24z"/>
<path d="M4280 846 c0 -9 6 -16 13 -16 38 -1 39 -13 17 -162 -23 -156 -19
-198 20 -198 17 0 19 5 14 43 -3 23 1 92 11 152 23 151 21 148 56 141 24 -4
29 -2 29 13 0 19 -21 25 -117 37 -35 4 -43 2 -43 -10z"/>
<path d="M5393 848 c-57 -10 -73 -34 -26 -40 26 -3 27 -6 50 -142 24 -144 37
-180 72 -189 30 -7 35 8 13 40 -12 18 -24 62 -32 118 -6 50 -15 109 -20 133
-7 40 -6 44 16 52 31 12 32 40 2 39 -13 -1 -47 -6 -75 -11z"/>
<path d="M4470 816 c0 -15 22 -20 138 -32 l62 -6 0 -34 c0 -34 0 -34 -45 -34
-25 0 -61 -6 -80 -14 -38 -16 -75 -68 -75 -104 0 -37 38 -101 73 -122 61 -38
164 -21 201 32 20 28 21 98 3 123 -22 29 -37 10 -31 -38 5 -33 2 -48 -14 -67
-17 -21 -29 -25 -76 -25 -46 0 -60 4 -81 25 -29 29 -34 64 -16 107 15 37 44
47 116 38 49 -7 53 -5 58 17 4 12 7 38 7 56 0 31 1 32 45 32 32 0 45 4 45 14
0 16 -15 19 -182 36 -129 13 -148 13 -148 -4z"/>
<path d="M5135 820 c-44 -4 -124 -11 -177 -15 -74 -5 -98 -10 -98 -21 0 -16 1
-16 90 -18 l65 -1 3 -51 c3 -49 2 -52 -25 -57 -15 -3 -44 -16 -63 -29 -31 -22
-35 -29 -34 -67 1 -53 27 -81 82 -88 36 -5 45 -2 72 25 24 25 30 39 30 75 l0
44 51 7 c66 9 79 -2 79 -66 0 -61 25 -108 57 -108 27 0 28 8 9 35 -9 14 -16
68 -21 163 l-8 142 27 0 c19 0 26 5 26 20 0 23 -18 24 -165 10z m60 -100 l0
-55 -62 -3 -63 -3 0 54 c0 29 3 57 7 61 4 4 32 6 63 4 l55 -3 0 -55z m-165
-149 c0 -48 -21 -68 -57 -55 -60 21 -42 94 23 94 33 0 34 -1 34 -39z"/>
</g>
</svg>
